<?xml version="1.0" encoding="UTF-8" ?>
<!DOCTYPE svg PUBLIC "-//W3C//DTD SVG 1.1//EN" "http://www.w3.org/Graphics/SVG/1.1/DTD/svg11.dtd">
<svg width="1067pt" height="1067pt" viewBox="0 0 1067 1067" version="1.1" xmlns="http://www.w3.org/2000/svg">
<g id="#191919ff">
<path fill="#191919" opacity="1.00" d=" M 497.56 37.77 C 575.21 32.19 654.19 44.92 725.93 75.26 C 789.72 102.08 847.70 142.50 895.09 192.91 C 937.55 238.00 971.52 291.07 994.53 348.57 C 1029.33 435.03 1038.67 531.38 1021.91 623.01 C 1009.12 693.44 980.68 760.94 939.36 819.38 C 898.81 876.89 845.94 925.65 785.32 961.38 C 722.01 998.80 650.24 1021.84 576.96 1028.07 C 524.17 1032.73 470.63 1028.94 419.04 1016.80 C 366.24 1004.40 315.55 983.18 269.62 954.34 C 215.14 920.19 167.39 875.36 129.84 823.16 C 88.03 765.19 58.98 698.08 45.51 627.88 C 25.79 526.16 38.57 418.31 82.43 324.36 C 112.46 259.56 156.73 201.44 211.09 155.12 C 262.38 111.34 322.66 78.11 387.14 58.34 C 423.01 47.32 460.13 40.42 497.56 37.77 M 230.95 199.02 C 228.60 205.07 229.87 211.68 229.56 218.00 C 229.87 224.25 228.57 230.83 231.09 236.77 C 233.23 241.20 238.30 242.87 242.91 242.96 C 331.43 242.99 419.95 242.96 508.47 242.97 C 508.48 268.47 508.46 293.97 508.47 319.47 C 433.96 319.45 359.45 319.49 284.94 319.45 C 281.14 319.50 276.95 320.29 274.33 323.30 C 270.89 326.92 271.02 332.34 271.08 337.00 C 271.10 503.66 271.09 670.33 271.08 837.00 C 271.04 841.96 270.68 847.71 274.25 851.68 C 276.80 854.87 281.13 855.58 284.98 855.68 C 294.00 855.66 303.01 855.68 312.03 855.67 C 315.58 855.51 319.48 854.81 321.96 852.03 C 324.58 849.41 325.27 845.56 325.42 842.01 C 325.42 684.62 325.38 527.24 325.44 369.85 C 386.45 369.96 447.46 369.87 508.47 369.90 C 508.47 519.30 508.47 668.70 508.47 818.10 C 508.61 821.60 509.32 825.43 512.04 827.91 C 514.89 830.76 519.15 831.36 523.01 831.39 C 531.68 831.34 540.35 831.38 549.03 831.37 C 552.97 831.17 557.40 830.36 559.99 827.06 C 563.13 823.16 562.86 817.77 562.83 813.05 C 562.82 665.33 562.83 517.61 562.83 369.90 C 625.40 369.89 687.97 369.93 750.55 369.88 C 750.56 521.01 750.56 672.14 750.55 823.27 C 719.68 823.25 688.80 823.28 657.93 823.25 C 654.32 823.36 650.30 823.91 647.72 826.70 C 644.65 829.57 644.06 834.03 644.01 838.02 C 644.05 846.35 644.00 854.68 644.02 863.02 C 644.22 866.66 644.87 870.68 647.64 873.34 C 650.26 876.11 654.31 876.70 657.95 876.81 C 701.99 876.78 746.02 876.82 790.06 876.79 C 793.42 876.54 797.10 875.98 799.59 873.49 C 802.49 870.86 803.14 866.72 803.36 863.02 C 803.35 688.02 803.35 513.02 803.36 338.01 C 803.39 333.13 803.76 327.56 800.38 323.59 C 797.95 320.45 793.81 319.58 790.06 319.46 C 714.32 319.46 638.57 319.47 562.83 319.46 C 562.83 293.97 562.82 268.47 562.83 242.97 C 651.57 242.97 740.31 242.97 829.05 242.97 C 832.69 242.82 836.71 242.09 839.23 239.19 C 841.66 236.81 842.31 233.30 842.52 230.04 C 842.56 222.36 842.49 214.67 842.55 206.99 C 842.57 202.89 841.80 198.32 838.48 195.55 C 834.55 192.10 828.90 192.51 824.03 192.53 C 630.37 192.54 436.70 192.53 243.04 192.53 C 238.29 192.55 233.00 194.37 230.95 199.02 M 345.48 446.59 C 340.95 446.94 336.57 449.99 335.38 454.49 C 333.77 460.51 334.82 466.80 334.53 472.95 C 334.86 479.50 333.44 486.49 336.34 492.65 C 338.58 496.84 343.54 498.34 348.00 498.40 C 390.32 498.41 432.63 498.37 474.95 498.42 C 478.83 498.37 483.20 497.97 486.14 495.13 C 488.99 492.63 489.68 488.66 489.93 485.07 C 489.98 477.04 489.91 469.01 489.96 460.99 C 489.91 457.24 489.41 453.08 486.68 450.26 C 483.82 446.91 479.08 446.33 474.94 446.38 C 431.79 446.56 388.61 446.13 345.48 446.59 M 594.44 446.51 C 591.87 446.92 589.10 447.34 587.09 449.15 C 583.79 451.68 583.05 456.10 582.90 460.01 C 582.91 468.33 582.90 476.65 582.91 484.97 C 583.09 488.43 583.67 492.26 586.34 494.74 C 589.04 497.63 593.19 498.35 596.98 498.41 C 639.65 498.37 682.32 498.42 724.99 498.39 C 728.48 498.12 732.32 497.48 734.84 494.81 C 737.47 492.29 738.08 488.46 738.32 485.00 C 738.35 476.98 738.29 468.96 738.35 460.95 C 738.32 456.91 737.60 452.44 734.48 449.58 C 731.46 446.67 726.96 446.36 722.99 446.38 C 680.14 446.50 637.28 446.24 594.44 446.51 M 342.44 579.69 C 337.17 581.17 334.52 586.86 334.54 591.99 C 334.50 600.35 334.54 608.72 334.52 617.09 C 334.71 620.57 335.33 624.38 337.85 627.01 C 340.31 629.90 344.29 630.64 347.90 630.80 C 390.61 630.80 433.32 630.79 476.03 630.81 C 479.65 630.68 483.69 630.11 486.32 627.35 C 489.07 624.73 489.75 620.75 489.95 617.12 C 489.95 609.07 489.93 601.02 489.95 592.97 C 489.87 589.23 489.21 585.12 486.41 582.38 C 483.80 579.47 479.64 578.91 475.94 578.79 C 433.28 578.81 390.62 578.79 347.96 578.80 C 346.08 578.81 344.23 579.18 342.44 579.69 M 593.18 579.14 C 590.92 579.57 588.57 580.18 586.87 581.83 C 583.58 584.51 582.98 589.04 582.89 593.01 C 582.92 601.00 582.90 608.99 582.90 616.97 C 583.07 620.45 583.50 624.35 586.09 626.96 C 588.80 629.99 593.08 630.74 596.96 630.81 C 639.66 630.77 682.36 630.83 725.06 630.79 C 728.41 630.52 732.08 629.96 734.57 627.49 C 737.49 624.86 738.10 620.69 738.33 616.98 C 738.33 608.98 738.31 600.98 738.34 592.98 C 738.22 589.20 737.58 585.01 734.73 582.25 C 732.26 579.65 728.49 579.05 725.08 578.81 C 692.73 578.78 660.37 578.81 628.02 578.80 C 616.41 579.02 604.75 578.36 593.18 579.14 Z" />
</g>
<g id="#ffffffff">
</g>
</svg>
